# xmcd CD database file
#
# Track frame offsets:
#	150
#	16789
#	25597
#	41790
#	52830
#	70934
#	82838
#	102145
#	115692
#	132362
#	143197
#	157360
#
# Disc length: 2342 seconds
#
# Revision: 0
# Processed by: cddbd v1.5.2PL0 Copyright (c) Steve Scherf et al.
# Submitted via: CDex 1.70beta2
#
DISCID=9409240c
DTITLE=Arlan Feiles - come sunday morning
DYEAR=2007
DGENRE=Blues
TTITLE0=Come Sunday Morning
TTITLE1=The Best I Have
TTITLE2=I've Got No Choice
TTITLE3=Out of the Dirt
TTITLE4=Viola
TTITLE5=Salvation
TTITLE6=Worthless
TTITLE7=How Do You Say Goodbye
TTITLE8=And I Need You
TTITLE9=I've Not the Heart to Tell Her
TTITLE10=The Cannon's Blare
TTITLE11=If I'm Called On
EXTD=YEAR: 2007
EXTT0=
EXTT1=
EXTT2=
EXTT3=
EXTT4=
EXTT5=
EXTT6=
EXTT7=
EXTT8=
EXTT9=
EXTT10=
EXTT11=
PLAYORDER=
